# xmcd
#
# Track frame offsets:
#	150
#	13786
#	25365
#	36397
#	55637
#	65910
#	80329
#	92563
#	106063
#	118699
#	130146
#	143143
#	155171
#	165462
#	175488
#	188944
#	201195
#	212098
#	221917
#	233359
#
# Disc length: 3269 seconds
#
# Revision: 0
# Processed by: cddbd v1.5.2PL0 Copyright (c) Steve Scherf et al.
# Submitted via: dBpowerAMP V4.0
#
DISCID=1f0cc314
DTITLE=Various Artist - Totally Essential Bluegrass
DYEAR=1900
DGENRE=Bluegrass
TTITLE0=Bill Monroe-Blue moon of old Kentucky
TTITLE1=Armstron Twins-Cabin home in Caroline
TTITLE2=The Stanley Brothers-Nobody's love is like mine
TTITLE3=Ernest V Stoneman-Hop light ladies
TTITLE4=Jimmie Martin-My lonely heart
TTITLE5=Uncle Dave Macon-Buddy won't you roll down the line
TTITLE6=Bill Monroe-Uncle Penn
TTITLE7=Bailey Brothers-Heart's hall of fame
TTITLE8=Wade Mainer-Little Birdie
TTITLE9=The Stanley Brothers-The fields have turned to brown
TTITLE10=J E Mainer-Run mountain
TTITLE11=Delmore Brothers-I'm lonesome without you
TTITLE12=Flatt and Scruggs-Get in line brothers
TTITLE13=McCormick Brothers-Banjo twist
TTITLE14=The Osborne Brothers-Ruby are you mad at your man?
TTITLE15=Reno and Smiley-I'm the talk of the town
TTITLE16=Jim and Jesse-I'll wash your love from my heart
TTITLE17=Bill Monreo-Y'all come
TTITLE18=Tommy Magness-When I safely reach the other shore
TTITLE19=Flatt and Scruggs-Foggy Mountian breakdown
EXTD=
EXTT0=
EXTT1=
EXTT2=
EXTT3=
EXTT4=
EXTT5=
EXTT6=
EXTT7=
EXTT8=
EXTT9=
EXTT10=
EXTT11=
EXTT12=
EXTT13=
EXTT14=
EXTT15=
EXTT16=
EXTT17=
EXTT18=
EXTT19=
PLAYORDER=
